<?xml version="1.0" encoding="UTF-8" standalone="no"?>
<svg
   xmlns:dc="http://purl.org/dc/elements/1.1/"
   xmlns:cc="http://creativecommons.org/ns#"
   xmlns:rdf="http://www.w3.org/1999/02/22-rdf-syntax-ns#"
   xmlns:svg="http://www.w3.org/2000/svg"
   xmlns="http://www.w3.org/2000/svg"
   xmlns:sodipodi="http://sodipodi.sourceforge.net/DTD/sodipodi-0.dtd"
   xmlns:inkscape="http://www.inkscape.org/namespaces/inkscape"
   version="1.1"
   x="0px"
   y="0px"
   viewBox="0 0 132.28347 132.28347"
   enable-background="new 0 0 110 110"
   xml:space="preserve"
   id="svg2"
   inkscape:version="0.92.4 (5da689c313, 2019-01-14)"
   sodipodi:docname="smdev=prise_illumination.svg"
   width="3.5cm"
   height="3.5cm"><metadata
     id="metadata24"><rdf:RDF><cc:Work
         rdf:about=""><dc:format>image/svg+xml</dc:format><dc:type
           rdf:resource="http://purl.org/dc/dcmitype/StillImage" /><dc:title></dc:title></cc:Work></rdf:RDF></metadata><defs
     id="defs22" /><sodipodi:namedview
     pagecolor="#ffffff"
     bordercolor="#666666"
     borderopacity="1"
     objecttolerance="10"
     gridtolerance="10"
     guidetolerance="10"
     inkscape:pageopacity="0"
     inkscape:pageshadow="2"
     inkscape:window-width="1024"
     inkscape:window-height="705"
     id="namedview20"
     showgrid="false"
     inkscape:zoom="1.5594022"
     inkscape:cx="47.253463"
     inkscape:cy="84.678393"
     inkscape:window-x="-8"
     inkscape:window-y="-8"
     inkscape:window-maximized="1"
     inkscape:current-layer="g4"
     inkscape:document-units="cm"
     units="cm"
     inkscape:showpageshadow="false"
     showguides="true"
     inkscape:guide-bbox="true"
     inkscape:snap-bbox="true"
     inkscape:bbox-paths="true"
     inkscape:bbox-nodes="true"
     inkscape:snap-bbox-edge-midpoints="true"
     inkscape:snap-bbox-midpoints="true"
     inkscape:object-paths="true"
     inkscape:snap-intersection-paths="true"
     inkscape:snap-smooth-nodes="true"
     inkscape:snap-midpoints="true"
     inkscape:snap-object-midpoints="true"
     inkscape:snap-center="true"><sodipodi:guide
       position="0,0"
       orientation="0,132.28346"
       id="guide825"
       inkscape:locked="false" /><sodipodi:guide
       position="132.28347,0"
       orientation="-132.28346,0"
       id="guide827"
       inkscape:locked="false" /><sodipodi:guide
       position="132.28347,132.28347"
       orientation="0,-132.28346"
       id="guide829"
       inkscape:locked="false" /><sodipodi:guide
       position="0,132.28347"
       orientation="132.28346,0"
       id="guide831"
       inkscape:locked="false" /><sodipodi:guide
       position="0,0"
       orientation="0,132.28346"
       id="guide833"
       inkscape:locked="false" /><sodipodi:guide
       position="132.28347,0"
       orientation="-132.28346,0"
       id="guide835"
       inkscape:locked="false" /><sodipodi:guide
       position="132.28347,132.28347"
       orientation="0,-132.28346"
       id="guide837"
       inkscape:locked="false" /><sodipodi:guide
       position="0,132.28347"
       orientation="132.28346,0"
       id="guide839"
       inkscape:locked="false" /><sodipodi:guide
       position="0,0"
       orientation="0,132.28346"
       id="guide841"
       inkscape:locked="false" /><sodipodi:guide
       position="132.28347,0"
       orientation="-132.28346,0"
       id="guide843"
       inkscape:locked="false" /><sodipodi:guide
       position="132.28347,132.28347"
       orientation="0,-132.28346"
       id="guide845"
       inkscape:locked="false" /><sodipodi:guide
       position="0,132.28347"
       orientation="132.28346,0"
       id="guide847"
       inkscape:locked="false" /><sodipodi:guide
       position="132.28347,132.28347"
       orientation="-0.70710678,0.70710678"
       id="guide849"
       inkscape:locked="false" /><sodipodi:guide
       position="0,132.28347"
       orientation="0.70710678,0.70710678"
       id="guide851"
       inkscape:locked="false" /></sodipodi:namedview><g
     id="g4"
     transform="translate(0,-5.2165296)"><g
       id="g823"
       transform="matrix(1.2592968,0,0,1.2592968,-3.1183299,2.0982019)"><circle
         style="fill:#4d4d4d"
         id="circle8"
         r="3.3599999"
         cy="54.999001"
         cx="39.312" /><path
         style="fill:#b3b3b3"
         id="path10"
         d="M 87.205,18.521 H 22.792 c -2.359,0 -4.272,1.913 -4.272,4.271 v 64.417 c 0,2.357 1.913,4.268 4.272,4.268 h 64.413 c 2.361,0 4.273,-1.91 4.273,-4.268 V 22.792 c 0.001,-2.358 -1.912,-4.271 -4.273,-4.271 z M 55,79.2 C 41.632,79.2 30.8,68.365 30.8,55 30.8,41.635 41.632,30.798 55,30.798 68.364,30.798 79.2,41.635 79.2,55 79.2,68.365 68.364,79.2 55,79.2 Z"
         inkscape:connector-curvature="0" /><path
         style="fill:#4d4d4d"
         id="path12"
         d="m 67.322,55 c 0,1.856 1.504,3.359 3.363,3.359 1.854,0 3.358,-1.503 3.358,-3.359 0,-1.856 -1.504,-3.361 -3.358,-3.361 -1.859,0 -3.363,1.505 -3.363,3.361 z"
         inkscape:connector-curvature="0" /><path
         style="fill:#666666"
         id="path14"
         d="M 93.612,100.02 H 16.385 c -3.532,0 -6.405,-2.875 -6.405,-6.407 V 16.386 c 0,-3.533 2.873,-6.405 6.405,-6.405 h 77.227 c 3.532,0 6.407,2.873 6.407,6.405 v 77.226 c 10e-4,3.533 -2.874,6.408 -6.407,6.408 z M 16.385,14.251 c -1.179,0 -2.135,0.957 -2.135,2.135 v 77.226 c 0,1.179 0.956,2.137 2.135,2.137 h 77.227 c 1.179,0 2.137,-0.958 2.137,-2.137 V 16.386 c 0,-1.179 -0.958,-2.135 -2.137,-2.135 z"
         inkscape:connector-curvature="0" /></g></g></svg>