<?xml version="1.0" encoding="UTF-8" standalone="no"?>
<!-- Created with Inkscape (http://www.inkscape.org/) -->

<svg
   xmlns:dc="http://purl.org/dc/elements/1.1/"
   xmlns:cc="http://creativecommons.org/ns#"
   xmlns:rdf="http://www.w3.org/1999/02/22-rdf-syntax-ns#"
   xmlns:svg="http://www.w3.org/2000/svg"
   xmlns="http://www.w3.org/2000/svg"
   xmlns:sodipodi="http://sodipodi.sourceforge.net/DTD/sodipodi-0.dtd"
   xmlns:inkscape="http://www.inkscape.org/namespaces/inkscape"
   width="170cm"
   height="170cm"
   viewBox="0 0 1700 1700"
   version="1.1"
   id="svg897"
   inkscape:version="0.92.4 (5da689c313, 2019-01-14)"
   sodipodi:docname="smdev=boite_de_jonction.svg">
  <defs
     id="defs891" />
  <sodipodi:namedview
     id="base"
     pagecolor="#ffffff"
     bordercolor="#666666"
     borderopacity="1.0"
     inkscape:pageopacity="0.0"
     inkscape:pageshadow="2"
     inkscape:zoom="0.11313708"
     inkscape:cx="2581.0133"
     inkscape:cy="3480.3329"
     inkscape:document-units="cm"
     inkscape:current-layer="layer1"
     showgrid="false"
     units="cm"
     showguides="true"
     inkscape:guide-bbox="true"
     inkscape:snap-bbox="true"
     inkscape:bbox-paths="true"
     inkscape:bbox-nodes="true"
     inkscape:snap-bbox-edge-midpoints="true"
     inkscape:snap-bbox-midpoints="true"
     inkscape:object-paths="true"
     inkscape:snap-intersection-paths="true"
     inkscape:snap-smooth-nodes="true"
     inkscape:snap-midpoints="true"
     inkscape:snap-object-midpoints="true"
     inkscape:snap-center="true"
     inkscape:snap-text-baseline="true"
     inkscape:window-width="1024"
     inkscape:window-height="705"
     inkscape:window-x="-8"
     inkscape:window-y="-8"
     inkscape:window-maximized="1">
    <sodipodi:guide
       position="0,0"
       orientation="0,6047.2441"
       id="guide1489"
       inkscape:locked="false" />
    <sodipodi:guide
       position="1689.7913,1689.7913"
       orientation="-6047.2441,0"
       id="guide1491"
       inkscape:locked="false" />
    <sodipodi:guide
       position="0,1696.0114"
       orientation="0,-6047.2441"
       id="guide1493"
       inkscape:locked="false" />
    <sodipodi:guide
       position="0,1600"
       orientation="6047.2441,0"
       id="guide1495"
       inkscape:locked="false" />
    <sodipodi:guide
       position="1600,1600"
       orientation="-0.70710678,0.70710678"
       id="guide1497"
       inkscape:locked="false" />
    <sodipodi:guide
       position="0,1696.0114"
       orientation="0.70710678,0.70710678"
       id="guide1499"
       inkscape:locked="false" />
  </sodipodi:namedview>
  <metadata
     id="metadata894">
    <rdf:RDF>
      <cc:Work
         rdf:about="">
        <dc:format>image/svg+xml</dc:format>
        <dc:type
           rdf:resource="http://purl.org/dc/dcmitype/StillImage" />
        <dc:title></dc:title>
      </cc:Work>
    </rdf:RDF>
  </metadata>
  <g
     inkscape:label="Calque 1"
     inkscape:groupmode="layer"
     id="layer1"
     transform="translate(0,1403)">
    <path
       id="path865"
       d="m 427.2842,-925.18728 -4.2785,748.34197"
       style="fill:none;stroke:#ff0000;stroke-width:29.97653198px;stroke-linecap:butt;stroke-linejoin:miter;stroke-miterlimit:4;stroke-dasharray:none;stroke-opacity:1"
       inkscape:connector-curvature="0" />
    <path
       id="path867"
       d="m 1268.7491,-176.84531 c 0,152.14487 -80.6117,292.71167 -211.4467,368.78411 -130.8351,76.07244 -292.0148,76.07244 -422.8499,0 C 503.6175,115.86636 423.0057,-24.70044 423.0057,-176.84531"
       style="fill:none;stroke:#ff0000;stroke-width:29.97653198px;stroke-linecap:butt;stroke-linejoin:miter;stroke-miterlimit:4;stroke-dasharray:none;stroke-opacity:1"
       inkscape:connector-curvature="0" />
    <path
       id="path869"
       d="m 427.2842,-925.18728 c 0,-152.12362 80.5899,-292.69042 211.4249,-368.76282 130.8351,-76.0725 292.0367,-76.0725 422.8718,0 130.835,76.0724 211.4248,216.6392 211.4248,368.76282"
       style="fill:none;stroke:#ff0000;stroke-width:29.97653198px;stroke-linecap:butt;stroke-linejoin:miter;stroke-miterlimit:4;stroke-dasharray:none;stroke-opacity:1"
       inkscape:connector-curvature="0" />
    <path
       id="path871"
       d="m 1273.0057,-925.18728 -4.2566,748.34197"
       style="fill:none;stroke:#ff0000;stroke-width:29.97653198px;stroke-linecap:butt;stroke-linejoin:miter;stroke-miterlimit:4;stroke-dasharray:none;stroke-opacity:1"
       inkscape:connector-curvature="0" />
    <path
       id="path873"
       d="m 470.4205,-833.91728 59.285,9.8001 0.1317,10.7949 -19.8129,-3.302 c 1.6456,1.9262 2.8085,3.7253 3.5106,5.4187 0.724,1.6933 1.097,3.5559 1.119,5.5879 0.044,4.191 -1.4262,7.5988 -4.4321,10.2023 -2.984,2.6246 -7.3723,4.0004 -13.1428,4.1698 -3.9055,0.1058 -7.7013,-0.381 -11.4094,-1.4817 -3.6641,-1.0795 -6.6701,-2.5823 -9.0178,-4.5084 -2.3038,-1.905 -4.0372,-3.937 -5.2,-6.1172 -1.141,-2.1378 -1.7114,-4.4026 -1.7553,-6.8156 -0.066,-5.6938 2.5671,-9.9482 7.9207,-12.7845 l -7.087,-1.1854 z m 17.6407,14.0122 c -2.8743,0.085 -5.2,0.889 -6.9773,2.4553 -1.7992,1.5664 -2.6768,3.3867 -2.6329,5.4398 0.022,1.7992 0.724,3.4713 2.1502,5.0588 1.4262,1.6087 3.6642,2.921 6.7579,3.8947 3.0718,1.016 6.1654,1.4816 9.303,1.397 3.0279,-0.085 5.3976,-0.889 7.109,-2.413 1.7333,-1.5028 2.589,-3.2808 2.5451,-5.3552 -0.022,-2.7093 -1.4042,-4.9952 -4.1249,-6.8579 -3.708,-2.5823 -8.4254,-3.7676 -14.1301,-3.6195 z"
       style="fill:#0200f7;fill-opacity:1;fill-rule:nonzero;stroke:none;stroke-width:0.26938134"
       inkscape:connector-curvature="0" />
    <path
       id="path875"
       d="m 488.8291,-785.61528 c 7.9427,-0.2328 14.2837,1.6721 19.045,5.6938 4.7831,4.0216 7.2186,9.4402 7.3064,16.2135 0.066,5.8631 -1.6237,10.4986 -5.0684,13.8852 -3.4229,3.4079 -8.0963,5.1858 -13.9766,5.3552 -6.9553,0.1905 -12.9672,-1.6934 -18.0795,-5.6726 -5.1122,-3.9794 -7.7013,-9.4403 -7.7891,-16.3618 -0.066,-3.7464 0.7021,-7.0908 2.2819,-10.0329 1.5798,-2.9421 3.8397,-5.1646 6.7798,-6.6674 2.9401,-1.524 6.0997,-2.3284 9.5005,-2.413 z m 8.6668,30.4162 c 2.7426,-0.063 4.9148,-0.889 6.5385,-2.4341 1.6455,-1.524 2.4574,-3.4501 2.4354,-5.7996 -0.044,-2.3283 -0.8337,-4.3603 -2.4354,-6.1171 -1.5359,-1.7569 -3.8178,-3.0904 -6.7799,-4.0005 -2.9401,-0.9314 -5.6608,-1.3547 -8.1401,-1.27 -3.0498,0.085 -5.4853,0.9313 -7.2625,2.5188 -1.7773,1.6087 -2.6549,3.5772 -2.633,5.9266 0.044,2.9422 1.4262,5.3763 4.1688,7.3025 3.8836,2.7516 8.579,4.0428 14.1082,3.8734 z"
       style="fill:#0200f7;fill-opacity:1;fill-rule:nonzero;stroke:none;stroke-width:0.26938134"
       inkscape:connector-curvature="0" />
    <path
       id="path877"
       d="m 530.9123,-729.96858 0.1316,10.7526 -10.5317,-1.7145 -0.1317,-10.7526 z m -16.3462,-2.6881 0.1317,10.7526 -42.9608,-7.112 -0.1317,-10.7526 z"
       style="fill:#0200f7;fill-opacity:1;fill-rule:nonzero;stroke:none;stroke-width:0.26938134"
       inkscape:connector-curvature="0" />
    <path
       id="path879"
       d="m 506.1626,-716.73948 8.6229,1.397 0.066,5.2493 6.8675,1.1218 8.1402,12.1073 -14.8761,-2.4765 0.088,6.5616 -8.6229,-1.397 -0.088,-6.6039 -17.9917,-2.9845 c -3.2692,-0.5292 -5.1123,-0.7832 -5.5731,-0.762 -0.8996,0.021 -1.5797,0.2963 -2.0844,0.8255 -0.4827,0.5503 -0.724,1.5028 -0.7021,2.8786 0,0.4657 0.1097,1.651 0.3291,3.556 l -8.6228,-1.4393 c -0.4169,-1.8415 -0.6363,-3.7465 -0.6802,-5.6938 -0.044,-3.7888 0.7021,-6.5828 2.238,-8.3396 1.5797,-1.778 3.7519,-2.6882 6.5604,-2.7728 1.3165,-0.042 4.3443,0.3386 9.1275,1.1218 l 17.2677,2.8575 z"
       style="fill:#0200f7;fill-opacity:1;fill-rule:nonzero;stroke:none;stroke-width:0.26938134"
       inkscape:connector-curvature="0" />
    <path
       id="path881"
       d="m 490.5186,-654.59458 -0.3291,-26.9873 c -0.4608,0 -0.8118,0 -1.0532,0 -2.8523,0.085 -5.1342,0.889 -6.8676,2.4341 -1.7333,1.5875 -2.589,3.4502 -2.5671,5.6303 0.044,3.5771 2.0844,6.3076 6.0777,8.1915 l -1.6017,9.673 c -4.1907,-1.7568 -7.3722,-4.1698 -9.5005,-7.2601 -2.1063,-3.0691 -3.1815,-6.5404 -3.2473,-10.4562 -0.066,-5.334 1.7114,-9.7366 5.2878,-13.1868 3.6203,-3.4501 8.4254,-5.2704 14.4154,-5.4398 5.8802,-0.1481 11.1022,1.2065 15.7318,4.1063 6.2313,3.937 9.3908,9.7366 9.5005,17.3777 0.044,4.8895 -1.5139,8.8053 -4.7393,11.7686 -3.2034,2.9633 -7.7013,4.5297 -13.5377,4.699 -2.8085,0.063 -5.3317,-0.1058 -7.5697,-0.5503 z m 6.9554,-9.271 c 0.5046,0.021 0.8995,0.021 1.1628,0.021 3.1815,-0.1058 5.5512,-0.8254 7.1309,-2.2013 1.5578,-1.3758 2.3258,-3.1538 2.3038,-5.3763 -0.022,-2.2436 -0.9654,-4.2121 -2.7865,-5.9266 -1.8211,-1.6933 -4.4979,-2.8151 -8.0305,-3.3443 z"
       style="fill:#0200f7;fill-opacity:1;fill-rule:nonzero;stroke:none;stroke-width:0.26938134"
       inkscape:connector-curvature="0" />
    <path
       id="path883"
       d="m 532.3165,-618.95018 0.1317,10.7949 -10.5099,-1.7357 -0.1536,-10.7949 z m -16.3461,-2.6882 0.1316,10.795 -36.3565,-6.0537 c -10.3781,-1.7145 -16.6972,-3.2385 -18.9133,-4.6143 -3.4447,-2.0531 -5.2,-5.4398 -5.2658,-10.2022 -0.022,-2.9422 0.373,-5.6515 1.2067,-8.128 l 9.5664,1.4182 c -0.4169,1.7356 -0.6363,3.1961 -0.6144,4.3603 0.022,1.4605 0.6363,2.6035 1.8431,3.4501 1.2287,0.8255 5.5072,1.8627 12.8136,3.0903 z"
       style="fill:#0200f7;fill-opacity:1;fill-rule:nonzero;stroke:none;stroke-width:0.26938134"
       inkscape:connector-curvature="0" />
    <path
       id="path885"
       d="m 491.0891,-606.46198 c 7.9427,-0.2328 14.2837,1.6722 19.0449,5.6938 4.7832,4.0217 7.2186,9.4403 7.3064,16.2135 0.088,5.8632 -1.6017,10.4986 -5.0684,13.88528 -3.4228,3.4078 -8.0743,5.1858 -13.9765,5.35514 -6.9334,0.1905 -12.9672,-1.69334 -18.0795,-5.67262 -5.1123,-3.9793 -7.7014,-9.4403 -7.7891,-16.3617 -0.044,-3.7465 0.724,-7.0908 2.3038,-10.0329 1.5578,-2.9422 3.8178,-5.1647 6.7579,-6.6675 2.9401,-1.524 6.1215,-2.3283 9.5005,-2.413 z m 8.6667,30.4163 c 2.7427,-0.063 4.9149,-0.889 6.5385,-2.4341 1.6675,-1.524 2.4574,-3.4502 2.4355,-5.7997 -0.022,-2.3283 -0.8338,-4.3603 -2.4136,-6.1171 -1.5578,-1.7568 -3.8177,-3.0903 -6.8017,-4.0005 -2.9401,-0.9313 -5.6389,-1.3546 -8.1182,-1.27 -3.0718,0.085 -5.4853,0.9314 -7.2845,2.5189 -1.7772,1.6086 -2.6549,3.5771 -2.6329,5.9266 0.044,2.9421 1.4261,5.3763 4.1688,7.3024 3.8836,2.7517 8.6009,4.0428 14.1081,3.8735 z"
       style="fill:#0200f7;fill-opacity:1;fill-rule:nonzero;stroke:none;stroke-width:0.26938134"
       inkscape:connector-curvature="0" />
    <path
       id="path887"
       d="m 516.8261,-553.3552 0.1316,10.20228 -5.5731,-0.889 c 2.3916,2.47647 4.103,4.80481 5.1343,6.96378 1.0531,2.20131 1.5797,4.52964 1.6236,6.96378 0.044,3.28081 -0.9434,5.88428 -2.9401,7.81045 -1.9966,1.96847 -4.6515,2.98447 -7.9866,3.0903 -1.5139,0.0423 -4.3663,-0.29633 -8.579,-0.99483 l -24.3108,-4.00047 -0.1316,-10.77376 24.3986,4.04281 c 3.6422,0.59267 5.8144,0.889 6.4945,0.86783 1.492,-0.0423 2.633,-0.48683 3.4667,-1.3335 0.8557,-0.82547 1.2726,-1.96847 1.2507,-3.4078 -0.022,-1.58748 -0.768,-3.30198 -2.2161,-5.18578 -1.4481,-1.88384 -3.335,-3.34431 -5.7047,-4.38148 -1.6675,-0.762 -5.0903,-1.54516 -10.2465,-2.41297 l -17.6187,-2.921 -0.1536,-10.75259 z"
       style="fill:#0200f7;fill-opacity:1;fill-rule:nonzero;stroke:none;stroke-width:0.26938134"
       inkscape:connector-curvature="0" />
    <path
       id="path889"
       d="m 490.9574,-487.14634 -1.6894,10.49858 c -5.0246,-1.5875 -8.8643,-4.02164 -11.5191,-7.32361 -2.6549,-3.30197 -4.0153,-7.17545 -4.0591,-11.62042 -0.066,-5.07995 1.5139,-9.14392 4.7173,-12.21306 3.2254,-3.06914 7.6794,-4.67781 13.3841,-4.82598 4.6515,-0.14816 9.0617,0.635 13.2305,2.32831 4.1688,1.67217 7.46,4.29681 9.8735,7.85278 2.4355,3.55598 3.6862,7.49295 3.73,11.81092 0.066,4.69898 -1.2067,8.48778 -3.7958,11.36642 -2.611,2.85748 -6.0558,4.52962 -10.3562,5.01645 l -1.2945,-10.20225 c 2.3915,-0.3175 4.1468,-1.05834 5.2439,-2.22248 1.119,-1.12183 1.6675,-2.5823 1.6456,-4.38147 -0.022,-2.07431 -0.8777,-4.00047 -2.5671,-5.75728 -1.6895,-1.73567 -4.2127,-3.04797 -7.5697,-3.93697 -3.3131,-0.86784 -6.4288,-1.24884 -9.325,-1.16417 -2.5233,0.0635 -4.476,0.6985 -5.8364,1.88383 -1.3603,1.18531 -2.0185,2.64581 -1.9966,4.38145 0.022,1.7145 0.7021,3.36547 2.0844,4.93181 1.3604,1.54516 3.4009,2.75164 6.0996,3.57714 z"
       style="fill:#0200f7;fill-opacity:1;fill-rule:nonzero;stroke:none;stroke-width:0.26938134"
       inkscape:connector-curvature="0" />
    <path
       id="path891"
       d="m 509.3002,-469.21831 8.6229,1.397 0.066,5.24928 6.8676,1.12183 8.1402,12.10723 -14.8761,-2.47647 0.088,6.56161 -8.6229,-1.39697 -0.088,-6.60397 -17.9917,-2.98448 c -3.2693,-0.52917 -5.1343,-0.78314 -5.5731,-0.78314 -0.8996,0.0212 -1.6017,0.31747 -2.1063,0.84664 -0.4608,0.55033 -0.7022,1.50283 -0.6802,2.87864 0,0.46567 0.1097,1.651 0.3291,3.55598 l -8.6229,-1.46048 c -0.4168,-1.82033 -0.6582,-3.72531 -0.6801,-5.67264 -0.044,-3.78878 0.7021,-6.58278 2.238,-8.33959 1.5578,-1.778 3.7519,-2.7093 6.5384,-2.7728 1.3165,-0.0423 4.3663,0.33864 9.1495,1.1218 l 17.2677,2.85748 z"
       style="fill:#0200f7;fill-opacity:1;fill-rule:nonzero;stroke:none;stroke-width:0.26938134"
       inkscape:connector-curvature="0" />
    <path
       id="path893"
       d="m 534.6203,-435.52124 0.1536,10.75259 -10.5317,-1.73564 -0.1317,-10.75259 z m -16.3242,-2.68814 0.1317,10.75259 -42.9608,-7.11195 -0.1317,-10.75259 z"
       style="fill:#0200f7;fill-opacity:1;fill-rule:nonzero;stroke:none;stroke-width:0.26938134"
       inkscape:connector-curvature="0" />
    <path
       id="path895"
       d="m 493.4148,-422.96949 c 7.9427,-0.21166 14.2837,1.67217 19.045,5.69378 4.7831,4.04281 7.2186,9.44028 7.3064,16.21356 0.088,5.86312 -1.6237,10.49859 -5.0684,13.9064 -3.4229,3.38664 -8.0963,5.16464 -13.9766,5.33395 -6.9334,0.21166 -12.9672,-1.69331 -18.0795,-5.67262 -5.1122,-3.9793 -7.7013,-9.41909 -7.7891,-16.34053 -0.044,-3.74648 0.7241,-7.11195 2.2819,-10.05412 1.5798,-2.94214 3.8397,-5.16461 6.7798,-6.66744 2.9401,-1.50281 6.1216,-2.30714 9.5005,-2.41298 z m 8.6668,30.43743 c 2.7426,-0.0847 4.9148,-0.88897 6.5385,-2.43414 1.6455,-1.52397 2.4574,-3.47131 2.4354,-5.82078 -0.022,-2.30717 -0.8337,-4.36031 -2.4135,-6.11714 -1.5578,-1.75681 -3.8178,-3.09031 -6.8018,-4.00045 -2.9401,-0.91016 -5.6608,-1.3335 -8.1182,-1.27 -3.0717,0.0847 -5.5072,0.93134 -7.2844,2.53998 -1.7773,1.5875 -2.6549,3.55597 -2.633,5.90547 0.044,2.96331 1.4262,5.39745 4.1688,7.32361 3.8836,2.73048 8.579,4.02162 14.1082,3.87345 z"
       style="fill:#0200f7;fill-opacity:1;fill-rule:nonzero;stroke:none;stroke-width:0.26938134"
       inkscape:connector-curvature="0" />
    <path
       id="path897"
       d="m 519.1518,-369.84155 0.1317,10.18109 -5.5731,-0.88898 c 2.3916,2.47648 4.103,4.80478 5.1342,6.98495 1.0532,2.20131 1.5798,4.50845 1.6237,6.96378 0.022,3.28081 -0.9435,5.86312 -2.9401,7.81042 -1.9967,1.94734 -4.6516,2.9845 -7.9866,3.06917 -1.5139,0.0423 -4.3663,-0.29633 -8.579,-0.99483 l -24.3108,-4.00048 -0.1316,-10.75259 24.3985,4.02164 c 3.6422,0.61384 5.8144,0.889 6.4946,0.86784 1.492,-0.0423 2.6329,-0.48684 3.4667,-1.3335 0.8557,-0.8255 1.2726,-1.94731 1.2506,-3.40781 -0.022,-1.56633 -0.7679,-3.30197 -2.216,-5.18581 -1.4481,-1.8838 -3.357,-3.3443 -5.7047,-4.38144 -1.6675,-0.74084 -5.0904,-1.54517 -10.2465,-2.39184 l -17.6188,-2.92097 -0.1536,-10.75259 z"
       style="fill:#0200f7;fill-opacity:1;fill-rule:nonzero;stroke:none;stroke-width:0.26938134"
       inkscape:connector-curvature="0" />
  </g>
</svg>
